<svg width="70" height="70" viewBox="0 0 70 70" fill="none" xmlns="http://www.w3.org/2000/svg">
<path d="M42.6096 61.9794C53.3071 61.9794 61.9792 53.3073 61.9792 42.6098C61.9792 31.9123 53.3071 23.2402 42.6096 23.2402C31.912 23.2402 23.24 31.9123 23.24 42.6098C23.24 53.3073 31.912 61.9794 42.6096 61.9794Z" stroke="#FAFAFA" stroke-width="3" stroke-linecap="round" stroke-linejoin="round"/>
<path d="M36.6261 50.0122C37.2 50.7362 37.9392 51.3119 38.7817 51.691C39.6241 52.0701 40.5453 52.2416 41.4677 52.191H44.3742C45.6585 52.191 46.8901 51.6808 47.7983 50.7727C48.7064 49.8646 49.2166 48.6329 49.2166 47.3486C49.2166 46.0643 48.7064 44.8326 47.7983 43.9245C46.8901 43.0164 45.6585 42.5062 44.3742 42.5062H41.2256C39.9414 42.5062 38.7097 41.996 37.8015 41.0879C36.8934 40.1798 36.3832 38.9481 36.3832 37.6638C36.3832 36.3795 36.8934 35.1478 37.8015 34.2397C38.7097 33.3316 39.9414 32.8214 41.2256 32.8214H44.1321C45.0604 32.7168 45.9997 32.8639 46.8515 33.2472C47.7034 33.6306 48.4364 34.236 48.9738 35.0002M42.6781 30.1585V54.3697M24.0552 36.0093C23.402 35.397 22.8818 34.6566 22.5273 33.8344C22.1728 33.0122 21.9914 32.1258 21.9946 31.2304V24.9347C21.9911 24.0753 22.1579 23.2237 22.4852 22.429C22.8125 21.6343 23.294 20.9123 23.9018 20.3047C24.5096 19.697 25.2317 19.2157 26.0264 18.8885C26.8212 18.5614 27.6729 18.3948 28.5323 18.3985C29.5035 18.416 30.4598 18.6411 31.3369 19.0586C32.214 19.4762 32.9916 20.0765 33.6175 20.8193M19.0896 25.4189H27.3219M19.0896 30.2606H27.3219" stroke="#FAFAFA" stroke-width="3" stroke-linecap="round" stroke-linejoin="round"/>
<path d="M23.3625 46.3372C19.9526 45.6122 16.8017 43.9804 14.2419 41.6139C11.6821 39.2475 9.80846 36.234 8.81852 32.8915C7.82858 29.549 7.75905 26.0012 8.61728 22.6225C9.47552 19.2437 11.2297 16.1592 13.6948 13.6943C16.1599 11.2293 19.2445 9.47536 22.6233 8.61735C26.0021 7.75933 29.5498 7.82908 32.8923 8.81923C36.2348 9.80939 39.2481 11.6832 41.6144 14.2432C43.9807 16.8031 45.6123 19.9541 46.337 23.364" stroke="#FAFAFA" stroke-width="3" stroke-linecap="round" stroke-linejoin="round"/>
</svg>
