<svg width="70" height="70" viewBox="0 0 70 70" fill="none" xmlns="http://www.w3.org/2000/svg">
<path d="M35.0001 26.2497C40.638 26.2497 45.2084 21.6792 45.2084 16.0413C45.2084 10.4034 40.638 5.83301 35.0001 5.83301C29.3622 5.83301 24.7917 10.4034 24.7917 16.0413C24.7917 21.6792 29.3622 26.2497 35.0001 26.2497Z" stroke="#FAFAFA" stroke-width="4.16667" stroke-linecap="round" stroke-linejoin="round"/>
<path d="M5.83337 59.7913C5.83337 46.904 17.5861 36.458 32.0834 36.458M40.8334 42.583C40.8334 41.027 51.0417 37.9163 51.0417 37.9163C51.0417 37.9163 61.25 41.027 61.25 42.583C61.25 55.027 51.0417 61.2497 51.0417 61.2497C51.0417 61.2497 40.8334 55.027 40.8334 42.583Z" stroke="#FAFAFA" stroke-width="4.16667" stroke-linecap="round" stroke-linejoin="round"/>
</svg>
