<svg width="70" height="70" viewBox="0 0 70 70" fill="none" xmlns="http://www.w3.org/2000/svg">
<path fill-rule="evenodd" clip-rule="evenodd" d="M35 5.25C31.0932 5.25 27.2246 6.01951 23.6152 7.51458C20.0057 9.00966 16.7261 11.201 13.9636 13.9636C11.201 16.7261 9.00966 20.0057 7.51458 23.6152C6.01951 27.2246 5.25 31.0932 5.25 35C5.25 38.9068 6.01951 42.7754 7.51458 46.3848C9.00966 49.9943 11.201 53.2739 13.9636 56.0364C16.7261 58.799 20.0057 60.9903 23.6152 62.4854C27.2246 63.9805 31.0932 64.75 35 64.75C42.8902 64.75 50.4572 61.6156 56.0364 56.0364C61.6156 50.4572 64.75 42.8902 64.75 35C64.75 27.1098 61.6156 19.5428 56.0364 13.9636C50.4572 8.38437 42.8902 5.25 35 5.25ZM1.75 35C1.75 30.6335 2.61004 26.3099 4.28101 22.2758C5.95197 18.2417 8.40115 14.5762 11.4887 11.4887C14.5762 8.40115 18.2417 5.95197 22.2758 4.28101C26.3099 2.61004 30.6335 1.75 35 1.75C39.3665 1.75 43.6901 2.61004 47.7242 4.28101C51.7583 5.95197 55.4238 8.40115 58.5113 11.4887C61.5988 14.5762 64.048 18.2417 65.719 22.2758C67.39 26.3099 68.25 30.6335 68.25 35C68.25 43.8184 64.7469 52.2757 58.5113 58.5113C52.2757 64.7469 43.8184 68.25 35 68.25C26.1816 68.25 17.7243 64.7469 11.4887 58.5113C5.25312 52.2757 1.75 43.8184 1.75 35Z" fill="#FAFAFA"/>
<path fill-rule="evenodd" clip-rule="evenodd" d="M42.021 5.88012L34.685 10.2481C34.6422 10.2735 34.6067 10.3097 34.5821 10.3529C34.5575 10.3962 34.5445 10.4451 34.5445 10.4949C34.5445 10.5446 34.5575 10.5936 34.5821 10.6368C34.6067 10.6801 34.6422 10.7162 34.685 10.7416C37.1595 12.2116 37.1595 15.7921 34.685 17.2586L32.284 18.6831C31.741 19.0041 31.1446 19.2246 30.5235 19.3341L24.192 20.4611C23.7878 20.5334 23.4219 20.7455 23.1583 21.0603C22.8947 21.3751 22.7501 21.7725 22.75 22.1831V23.4186C22.7503 23.6028 22.7975 23.7838 22.8874 23.9445C22.9772 24.1053 23.1066 24.2404 23.2633 24.3372C23.42 24.4339 23.5988 24.4891 23.7827 24.4974C23.9667 24.5057 24.1497 24.4669 24.3145 24.3846L26.4775 23.3031C27.2068 22.939 28.0108 22.7496 28.826 22.7501H36.75C37.0217 22.7501 37.2896 22.6869 37.5326 22.5654C37.7756 22.4439 37.987 22.2675 38.15 22.0501L40.684 18.6691C41.401 17.7143 42.4463 17.0589 43.6181 16.8294C44.79 16.5999 46.0053 16.8127 47.0295 17.4266L48.727 18.4416C51.786 20.2826 51.1 24.9026 47.635 25.7706C47.5254 25.7979 47.4281 25.8608 47.3584 25.9496C47.2887 26.0383 47.2505 26.1478 47.25 26.2606V27.5871C47.2499 28.5626 46.9781 29.5188 46.465 30.3485C45.9519 31.1781 45.2178 31.8484 44.345 32.2841L41.538 33.6841C40.553 34.1769 39.4379 34.3475 38.3506 34.1716C37.2633 33.9957 36.2589 33.4823 35.4795 32.7041L35 32.2246C34.8078 32.0329 34.5737 31.8885 34.3162 31.8029C34.0586 31.7172 33.7847 31.6927 33.516 31.7311L24.5455 33.0121C24.3022 33.0468 24.0689 33.1324 23.8608 33.2632C23.6528 33.3941 23.4746 33.5673 23.338 33.7716L21.5635 36.4316C21.4281 36.6347 21.3366 36.8638 21.295 37.1043C21.2534 37.3448 21.2626 37.5914 21.322 37.8281L22.68 43.2601L23.0895 44.4816C23.1597 44.6921 23.2776 44.8836 23.4339 45.0411C23.5902 45.1986 23.7808 45.3179 23.9908 45.3897C24.2008 45.4615 24.4245 45.4839 24.6446 45.4551C24.8646 45.4263 25.075 45.3471 25.2595 45.2236C26.0711 44.6828 27.0246 44.3942 28 44.3942C28.9753 44.3942 29.9288 44.6828 30.7405 45.2236L33.446 47.0296C34.2066 47.536 34.8219 48.2321 35.231 49.0491L37.947 54.4776C38.3111 55.2069 38.5005 56.011 38.5 56.8261V59.5806C38.5 59.8667 38.5702 60.1483 38.7044 60.401C38.8385 60.6536 39.0326 60.8695 39.2695 61.0298C39.5065 61.19 39.7791 61.2898 40.0635 61.3202C40.3479 61.3507 40.6355 61.311 40.901 61.2046L42.147 60.7076C42.5273 60.556 42.8425 60.2757 43.0375 59.9157C43.2326 59.5556 43.2952 59.1386 43.2145 58.7371L42.385 54.6001C42.0525 52.9306 42.574 51.2051 43.778 50.0011L44.009 49.7701C44.3434 49.4356 44.7423 49.1724 45.1815 48.9966L48.636 47.6141L46.5955 45.5771C46.0193 45 45.5855 44.2966 45.3285 43.5226L44.072 39.7566C43.8006 38.9433 43.8006 38.0639 44.072 37.2506C45.143 34.0446 49.4795 33.5686 51.219 36.4666L52.4335 38.4896C52.6332 38.8221 52.951 39.0671 53.3235 39.1754C53.6959 39.2838 54.0955 39.2476 54.4425 39.0741L54.5195 39.0391C54.7511 38.9232 54.9518 38.7539 55.1051 38.5451C55.2585 38.3364 55.36 38.0942 55.4014 37.8385C55.4427 37.5828 55.4227 37.321 55.343 37.0746C55.2633 36.8281 55.1262 36.6042 54.943 36.4211L53.7145 35.1926C53.2634 34.7387 52.9122 34.1954 52.6833 33.5978C52.4545 33.0001 52.3532 32.3612 52.3857 31.7221C52.4183 31.083 52.5841 30.4577 52.8726 29.8864C53.161 29.3151 53.5656 28.8104 54.0605 28.4047C54.5554 27.999 55.1297 27.7012 55.7464 27.5304C56.3632 27.3596 57.0088 27.3197 57.6419 27.4131C58.2751 27.5065 58.8817 27.7312 59.4228 28.0727C59.964 28.4143 60.4278 28.8653 60.7845 29.3966L61.6665 30.7266C61.8265 30.9659 62.0431 31.162 62.2971 31.2975C62.5511 31.4331 62.8346 31.5039 63.1225 31.5036H64.75V35.0036H63.1225C62.2582 35.0036 61.4073 34.7901 60.6453 34.3823C59.8834 33.9744 59.2339 33.3848 58.7545 32.6656L57.8725 31.3391C57.7869 31.2145 57.6764 31.109 57.5479 31.0293C57.4194 30.9496 57.2758 30.8975 57.1262 30.8761C56.9765 30.8548 56.824 30.8649 56.6784 30.9055C56.5328 30.9462 56.3972 31.0167 56.2803 31.1125C56.1633 31.2083 56.0675 31.3273 55.999 31.4621C55.9304 31.5968 55.8906 31.7443 55.882 31.8952C55.8734 32.0462 55.8963 32.1973 55.9491 32.3389C56.002 32.4805 56.0836 32.6097 56.189 32.7181L57.4175 33.9466C57.9926 34.5216 58.4229 35.225 58.673 35.9988C58.923 36.7727 58.9857 37.5948 58.8559 38.3976C58.726 39.2004 58.4073 39.9609 57.926 40.6164C57.4447 41.272 56.8145 41.8038 56.0875 42.1681L56.0105 42.2031C54.8747 42.7726 53.5659 42.8921 52.3458 42.5378C51.1257 42.1834 50.0845 41.3814 49.4305 40.2921L48.2195 38.2691C48.165 38.1667 48.0735 38.089 47.9636 38.0518C47.8538 38.0146 47.7339 38.0208 47.6284 38.069C47.523 38.1173 47.4399 38.204 47.3962 38.3115C47.3526 38.4189 47.3516 38.539 47.3935 38.6471L48.65 42.4166C48.7353 42.6735 48.8791 42.9072 49.07 43.0991L51.5235 45.5526C53.704 45.9936 54.1485 49.1786 51.891 50.0816L46.4835 52.2446L46.2525 52.4756C46.0673 52.6612 45.9309 52.8895 45.8552 53.1405C45.7794 53.3914 45.7668 53.6571 45.8185 53.9141L46.6445 58.0546C46.8851 59.2575 46.6968 60.5067 46.1125 61.5852C45.5281 62.6638 44.5845 63.5037 43.4455 63.9591L42.1995 64.4596C41.4025 64.7783 40.5396 64.8968 39.6863 64.8046C38.833 64.7125 38.0152 64.4125 37.3047 63.931C36.5942 63.4495 36.0126 62.8012 35.6108 62.0427C35.209 61.2843 34.9993 60.4389 35 59.5806V56.8261C35 56.5539 34.9364 56.2855 34.8145 56.0421L32.102 50.6171C31.9659 50.3439 31.7608 50.111 31.507 49.9416L28.8015 48.1356C28.5641 47.9775 28.2852 47.8931 28 47.8931C27.7147 47.8931 27.4359 47.9775 27.1985 48.1356C26.5663 48.5573 25.8453 48.8275 25.0917 48.9252C24.338 49.023 23.572 48.9456 22.8531 48.6991C22.1343 48.4526 21.482 48.0436 20.9469 47.5039C20.4118 46.9643 20.0084 46.3085 19.768 45.5876L19.32 44.2401L17.927 38.6751C17.7499 37.9659 17.7229 37.2276 17.8477 36.5074C17.9724 35.7872 18.2462 35.1009 18.6515 34.4926L20.426 31.8326C20.8356 31.218 21.3703 30.6968 21.9951 30.303C22.6199 29.9091 23.3208 29.6516 24.052 29.5471L33.019 28.2661C33.8259 28.1506 34.6486 28.2246 35.4219 28.4822C36.1952 28.7397 36.898 29.1739 37.4745 29.7501L37.954 30.2296C38.2139 30.4888 38.5488 30.6597 38.9112 30.7182C39.2736 30.7766 39.6452 30.7195 39.9735 30.5551L42.784 29.1551C43.0748 29.0094 43.3193 28.7854 43.4899 28.5085C43.6606 28.2315 43.7506 27.9124 43.75 27.5871V26.2641C43.75 24.4231 45.003 22.8201 46.7845 22.3756C46.8829 22.3522 46.9721 22.2998 47.0406 22.2253C47.1091 22.1508 47.1537 22.0575 47.1688 21.9574C47.1838 21.8573 47.1686 21.755 47.1251 21.6636C47.0815 21.5722 47.0117 21.496 46.9245 21.4446L45.2305 20.4296C44.9488 20.2605 44.6146 20.2016 44.2921 20.2643C43.9696 20.327 43.6818 20.5068 43.484 20.7691L40.95 24.1501C40.4609 24.8021 39.8268 25.3314 39.0978 25.6959C38.3689 26.0604 37.565 26.2501 36.75 26.2501H28.826C28.5538 26.2501 28.2853 26.3137 28.042 26.4356L25.879 27.5171C25.1802 27.8662 24.4038 28.0308 23.6235 27.9954C22.8432 27.9599 22.0849 27.7255 21.4207 27.3145C20.7565 26.9035 20.2084 26.3295 19.8284 25.647C19.4485 24.9645 19.2494 24.1962 19.25 23.4151V22.1796C19.2498 20.9467 19.6835 19.7531 20.4751 18.8079C21.2667 17.8627 22.3657 17.2263 23.5795 17.0101L29.9145 15.8831C30.1207 15.8464 30.3187 15.7729 30.499 15.6661L32.9 14.2451C32.942 14.2195 32.9767 14.1835 33.0008 14.1406C33.0248 14.0977 33.0375 14.0493 33.0375 14.0001C33.0375 13.9509 33.0248 13.9025 33.0008 13.8596C32.9767 13.8167 32.942 13.7807 32.9 13.7551C32.3353 13.4202 31.8675 12.9442 31.5423 12.3739C31.2171 11.8036 31.0457 11.1586 31.045 10.5021C31.0443 9.84561 31.2143 9.20021 31.5382 8.62922C31.8622 8.05823 32.3291 7.58126 32.893 7.24512L40.229 2.87012L42.021 5.88012Z" fill="#FAFAFA"/>
</svg>
